PathFileType	4	(X/Y/Z)	/Users/niels/Desktop/University/Third Semester/Perception and Action/Exam/Gymnastics Motion Tracking/Code for Gym Tracking/Analyzed Data/Webcam_Backflip/id15_1_baseline_Sports2D/id15_1_baseline_Sports2D_px_person00.trc
DataRate	CameraRate	NumFrames	NumMarkers	Units	OrigDataRate	OrigDataStartFrame	OrigNumFrames
29.708737864077673	29.708737864077673	9	22	m	29.708737864077673	77	103
Frame#	Time	Hip			RHip			RKnee			RAnkle			RBigToe			RSmallToe			RHeel			LHip			LKnee			LAnkle			LBigToe			LSmallToe			LHeel			Neck			Head			Nose			RShoulder			RElbow			RWrist			LShoulder			LElbow			LWrist		
		X1	Y1	Z1	X2	Y2	Z2	X3	Y3	Z3	X4	Y4	Z4	X5	Y5	Z5	X6	Y6	Z6	X7	Y7	Z7	X8	Y8	Z8	X9	Y9	Z9	X10	Y10	Z10	X11	Y11	Z11	X12	Y12	Z12	X13	Y13	Z13	X14	Y14	Z14	X15	Y15	Z15	X16	Y16	Z16	X17	Y17	Z17	X18	Y18	Z18	X19	Y19	Z19	X20	Y20	Z20	X21	Y21	Z21	X22	Y22	Z22
77	2.591830065359477	1.0472112345269842	-0.6470580239127655	0.0	0.9925320347182329	-0.6589302989405517	0.0	0.8868338021435896	-0.8044159389228869	0.0	0.825557636141582	-0.9463704313844166	0.0	0.7655389952303562	-0.9678081514056247	0.0	0.7605763482091153	-0.9614338277726452	0.0	0.8314302328671231	-0.9681783288365765	0.0	1.1005658912909582	-0.6464179467196149	0.0	1.202273673864761	-0.7503856741650248	0.0	1.3279136827414417	-0.9550318295411995	0.0	1.373611181562192	-0.9947872484796227	0.0	1.3894130930040343	-0.984889982702837	0.0	1.332513458403566	-0.9822653870214015	0.0	1.021483832703854	-0.38404598781868127	0.0	0.9919077809107946	-0.2651278440010653	0.0	1.0067335837887694	-0.32855125756047443	0.0	0.9434590411796816	-0.4517932056698678	0.0	0.8952027848145747	-0.5686031723680328	0.0	0.8731157340324434	-0.6663644100269335	0.0	1.1164053110267809	-0.4157761693397195	0.0	1.197303140191663	-0.49072137547763245	0.0	1.2544940418875234	-0.5501603377306614	0.0
78	2.6254901960784314	1.0450596164924408	-0.6422115009872031	0.0	0.9902668792977387	-0.654688769356921	0.0	0.8860967201780866	-0.8008738299390773	0.0	0.8251709604192552	-0.9460453030113053	0.0	0.7643529041633736	-0.9671332766366778	0.0	0.7595864865371251	-0.9606577585198659	0.0	0.8312560583994282	-0.9679311959357778	0.0	1.0988022196716776	-0.6427611718167091	0.0	1.2009187499231595	-0.7513316588246068	0.0	1.3277698973850849	-0.9540355441805903	0.0	1.3728499493272712	-0.9943809583825772	0.0	1.3896891327598517	-0.9838423150732177	0.0	1.3325078586554058	-0.9812005984106126	0.0	1.017457063714077	-0.37903112812155043	0.0	0.9883318938311939	-0.260434232966116	0.0	1.0005592937297736	-0.32257588580760377	0.0	0.940876323313813	-0.44769325823408235	0.0	0.893201991109381	-0.5670935786498695	0.0	0.8503788430345197	-0.6687545077739182	0.0	1.1123688067366855	-0.4103364425789937	0.0	1.2018769313856994	-0.48239775178819383	0.0	1.2704223675193982	-0.5397069294613798	0.0
79	2.6591503267973855	1.0423237761648205	-0.6373918599863553	0.0	0.9875970558879149	-0.6502655511139956	0.0	0.8852202178841904	-0.7980509062603243	0.0	0.8248360718710953	-0.945486781692187	0.0	0.7633729736581882	-0.9666861407086712	0.0	0.7588918013582598	-0.9599440589525299	0.0	0.8313802469972056	-0.9672349435350879	0.0	1.0963055227172316	-0.6388099386511326	0.0	1.1991451344920439	-0.7526845046335162	0.0	1.3276356892597792	-0.9531355506645554	0.0	1.371936660874203	-0.9943514094374439	0.0	1.389768275139507	-0.9832182913343194	0.0	1.3327209859242002	-0.9799208974604894	0.0	1.013557164416493	-0.3742973746581982	0.0	0.9855512918180317	-0.2557047300528965	0.0	0.994908220109616	-0.3170311481175753	0.0	0.9385704106965095	-0.4432415573151465	0.0	0.8909883493681259	-0.5630216153638283	0.0	0.8304400187787369	-0.6628211422604271	0.0	1.1076816749940808	-0.4050694400443086	0.0	1.20372696653645	-0.4734492588936369	0.0	1.2846295425339511	-0.5245294233467467	0.0
80	2.6928104575163396	1.0390309201525951	-0.6327944654908323	0.0	0.9846339290642661	-0.645940016939572	0.0	0.8841613604196517	-0.7958442073268125	0.0	0.8245196570448248	-0.9447373598244986	0.0	0.7626404381855911	-0.966556144672056	0.0	0.7584487570364831	-0.9593595625105585	0.0	0.8317683252178867	-0.966033203118272	0.0	1.0930426087002594	-0.6347687962931832	0.0	1.1966293454976136	-0.7545152792883042	0.0	1.3274442057810951	-0.9524435655407212	0.0	1.3709131241663597	-0.9946042768566826	0.0	1.3896292187471468	-0.9830245476905618	0.0	1.3332180766732087	-0.9785243612206566	0.0	1.009975807893075	-0.3699209585408576	0.0	0.9834471733504789	-0.2510253227782683	0.0	0.9899461966652786	-0.3120448327950252	0.0	0.936588082346556	-0.43868996051527603	0.0	0.8882729018077818	-0.5562005933545718	0.0	0.8150831975023096	-0.6492703091623689	0.0	1.1027003541937441	-0.399889400163959	0.0	1.2033932599770276	-0.46347533820870923	0.0	1.295767698648609	-0.5050955757239629	0.0
81	2.726470588235294	1.0351986351614417	-0.6286318203521648	0.0	0.9814538637405654	-0.6419781914983174	0.0	0.8829680302116761	-0.7940254407412631	0.0	0.8242238223887639	-0.9439054018564339	0.0	0.7621366448101032	-0.9665727532531713	0.0	0.7582327233151769	-0.9588501547923411	0.0	0.832312086050571	-0.964433436744842	0.0	1.0890280063384083	-0.6309290065836946	0.0	1.1932005618458255	-0.7566507830865522	0.0	1.3271329762018584	-0.9519486354996579	0.0	1.369895409821018	-0.9948816592727701	0.0	1.3894498045860573	-0.9830200597585314	0.0	1.3339828714515463	-0.977070197839659	0.0	1.0068855164224093	-0.36591896586052997	0.0	0.9819788530042827	-0.24656880635131082	0.0	0.9858150527291168	-0.3077248470553401	0.0	0.9351362658454809	-0.4340293386278768	0.0	0.885383208361658	-0.5466307490980153	0.0	0.8053687417411185	-0.629507332769657	0.0	1.0977158289817668	-0.39473629796928933	0.0	1.201535177502696	-0.45211707487303204	0.0	1.3027403379976612	-0.48238261068053645	0.0
82	2.7601307189542483	1.0308867572244302	-0.625069139455004	0.0	0.9781814856538936	-0.6385405786842558	0.0	0.8817357462305426	-0.7922903826159731	0.0	0.8239377015740286	-0.9431316164268974	0.0	0.7617611709184448	-0.9664569919606676	0.0	0.7581892728904687	-0.9583176766440441	0.0	0.8328111619386092	-0.9626925771655598	0.0	1.084403627547585	-0.6275671009122293	0.0	1.1889642048796722	-0.758871888037496	0.0	1.326717341355714	-0.9515655418749028	0.0	1.369063934658953	-0.9949375575456318	0.0	1.3894703502348298	-0.9829148081364155	0.0	1.334974331125604	-0.9756597791182158	0.0	1.0043789355608619	-0.36220536754731375	0.0	0.9811268948905096	-0.24250249355373066	0.0	0.9825879508706006	-0.30407532254607156	0.0	0.9343959831921433	-0.42920012922211853	0.0	0.8830092420986639	-0.5347337010921235	0.0	0.8013939015981122	-0.605403024461946	0.0	1.0929710440003795	-0.38957009687413696	0.0	1.1987994207452701	-0.43935195381591524	0.0	1.305343380623428	-0.45777149453590027	0.0
83	2.7937908496732025	1.026250117133117	-0.6221693579474515	0.0	0.9749438330906556	-0.6356907161039601	0.0	0.8804478234996499	-0.7904873778659595	0.0	0.8236372452866939	-0.9424976084941634	0.0	0.7613469892663427	-0.9660701830846132	0.0	0.7581525049474156	-0.957728878955261	0.0	0.8330580575723873	-0.9610440950941734	0.0	1.0794241515460898	-0.6248257156447188	0.0	1.1843290709490022	-0.761088470419064	0.0	1.3262820091157284	-0.951256261422149	0.0	1.3685466490255564	-0.9947476688425045	0.0	1.3898086400987246	-0.982602164601907	0.0	1.3361796278940838	-0.9744131856534493	0.0	1.0024459262054415	-0.35870065385684236	0.0	0.9807576228756544	-0.23897921502922126	0.0	0.9802449765848875	-0.3010367537021439	0.0	0.9344101116241054	-0.42429348660555716	0.0	0.8818094866938034	-0.5214303834741978	0.0	0.8022661132889828	-0.5790294423160834	0.0	1.0886367728494395	-0.38436136109255353	0.0	1.1956315104150446	-0.4255484055300696	0.0	1.3041536354324275	-0.4326685702954604	0.0
84	2.8274509803921566	1.0215651655142832	-0.6198589854256268	0.0	0.9718342685874533	-0.6333899419368725	0.0	0.8789405493908408	-0.7886891071204191	0.0	0.8233263500762337	-0.9419656975570684	0.0	0.7607373910524391	-0.9655217532741617	0.0	0.7579253956220654	-0.957144610360307	0.0	0.8329329191903326	-0.9596301796294602	0.0	1.0743451071080714	-0.6226059531835961	0.0	1.1798369642051203	-0.7633465444645005	0.0	1.3258924560820142	-0.9510220070274998	0.0	1.3682982139640862	-0.9945548474761196	0.0	1.3903847842952333	-0.982222272361197	0.0	1.3375605063087261	-0.9733363965453679	0.0	1.0010184455406375	-0.3554056506954126	0.0	0.9805473074057017	-0.23614278739436803	0.0	0.9786141436549256	-0.29856095876505484	0.0	0.9351683798880515	-0.4195112385264613	0.0	0.8821934873028112	-0.5079919259355262	0.0	0.8065502516426533	-0.5523373696776622	0.0	1.0848092561560632	-0.3790980283588735	0.0	1.1921098682463849	-0.41134447022328857	0.0	1.2998548135013352	-0.408181228634047	0.0
85	2.861111111111111	1.0171770606390143	-0.6179543555403743	0.0	0.9689784472980433	-0.6314744168474562	0.0	0.8770771092521188	-0.7870224177685403	0.0	0.8230386964364574	-0.9414281138870793	0.0	0.7598753543720481	-0.9650857291525841	0.0	0.7574069680157883	-0.9566796916843014	0.0	0.8324485481819377	-0.9585424591511403	0.0	1.0693824031270838	-0.6206344607020342	0.0	1.1759339374076923	-0.7657235306787994	0.0	1.3255163053504675	-0.9507870668972881	0.0	1.3681657354657681	-0.9946627582953477	0.0	1.3909971015124876	-0.9819904967565917	0.0	1.3389559278072125	-0.9722650367794933	0.0	1.0000094908891648	-0.35234897272555443	0.0	0.9800730671842656	-0.23403948936436056	0.0	0.977466699085092	-0.29659985913707976	0.0	0.9366848737811379	-0.41502332288444116	0.0	0.8844300792203416	-0.4956275376202505	0.0	0.8131301464952233	-0.5267527351484144	0.0	1.0815660882218492	-0.37382806652369005	0.0	1.1880287365036988	-0.39744789732653235	0.0	1.2928820259459417	-0.3851160625126726	0.0
